<?xml version="1.0" encoding="utf-8"?><svg id="Calque_1" data-name="Calque 1" xmlns="http://www.w3.org/2000/svg" viewBox="0 0 53.9 66"><title>etranger</title><path d="M70.2,61.7L70,61.3l-0.6-.6H69.3L38.5,17.7a1.8,1.8,0,0,0-.3-0.9L38,16.5a0.8,0.8,0,0,0-1.2-.2l-0.4.2A28.1,28.1,0,0,0,23.1,43.7C24.6,57.3,36.1,68,50,68.9V81a0.9,0.9,0,0,0,1,1h2a0.9,0.9,0,0,0,1-1V68.8a29.4,29.4,0,0,0,15.6-5.7l0.3-.3A0.7,0.7,0,0,0,70.2,61.7ZM25.6,41.2A25.7,25.7,0,0,1,36.3,19.8L66.5,62a25.8,25.8,0,0,1-13,4.2C38.8,67.1,26,55.6,25.6,41.2Z" transform="translate(-22.9 -16)" fill="#c9c9c9"/><path d="M67.5,78h-31A1.5,1.5,0,0,0,35,79.5v1A1.5,1.5,0,0,0,36.5,82h31A1.5,1.5,0,0,0,69,80.5v-1A1.5,1.5,0,0,0,67.5,78Z" transform="translate(-22.9 -16)" fill="#bcbcbc"/><path d="M39,76v2a0.9,0.9,0,0,0,1,1H64a0.9,0.9,0,0,0,1-1V76H39Z" transform="translate(-22.9 -16)" fill="#c9c9c9"/><path d="M52,72a25.5,25.5,0,0,0-13,4H65A25.5,25.5,0,0,0,52,72Z" transform="translate(-22.9 -16)" fill="#e6e6e6"/><path d="M53.3,64H53.2A24,24,0,0,1,28,40.9,24.4,24.4,0,0,1,51.6,16h0.1A24,24,0,0,1,76.8,39.1C77.3,52.3,66.7,63.4,53.3,64Z" transform="translate(-22.9 -16)" fill="#e8e8e8"/><path id="couleur" d="M66.3,23.1V22.5l0.5-.5,1.2-.6V21.2a24.1,24.1,0,0,1,6.9,8.9h-1l-0.7-.7L73,28.4l-0.6.4-0.3,1.4-1-1V28.3l-0.9-.7-0.4-.3H68.6L69,28.2l1.4,0.7,0.2,0.2H70.3v0.7l-0.6.3H69.2l-0.3-.5h0.9l0.2-.3-2-1.2-0.2-.5-0.8.7H66.2L65,29.8l-0.2.6H62.9l-0.7-.3L62,29V28.5l1.2-.3,1.3,0.2V27.7H64.2l0.2-1.1,1.3-.2L66.6,25l0.9-.2h1.1l-0.2-1.2-1,.4L67,23.2H66.3Zm9.3,9.1H73.8l-1.2-.8-1.3.2v0.8H70.9l-0.4-.3-2.2-.5V30.3l-2.8.3-0.8.5H63.1l-1.3.8v1.4l-2.7,2,0.3,0.8H60v0.8H59.3v2.1l2.4,2.5h1V41.4h1.8l0.5-.5h1l0.6,0.5h1.6v2L70,46.3,69.1,48v0.8l0.7,0.7v1.9l1,1.2v1.6h0.7a23.4,23.4,0,0,0,4.9-15.3,19.6,19.6,0,0,0-1.1-6.7h0ZM55.4,44.1H53.2L52.6,44l-1.1-.4V42.4l-0.6-1H49.2L48.3,40l-0.8-.4V40H46l-0.6-.7-1.5-.2-1.2,1.5-2-.3-0.2-2.2H39l0.5-1.1-0.2-.6-1.8,1.3H36.3l-0.5-.9,0.2-.9,0.6-1.2,1.5-.8H41v0.9l1.1,0.4V33.6l0.7-.8,1.5-1V31.1l1.5-1.6,1.6-.9H47.3l1.1-1.1h0.4L49,27.7l0.4-.5H49L48.5,27V26.6l0.2-.2h0.8l0.2,0.4h1.2V26.4h0.4v0.4H51v0.4l1,0.3h0.7V27.2L52,26.9V26.3l0.5-.2V25.3L52,25l-0.4-.2V23.4l-1.3.6H49.7V22.9L48,22.6l-0.7.6v1.6l-1.4.5-0.5,1.1H45V25.1H43.7l-0.6-.4-0.3-.9L45,22.4l1-.4v0.7h0.6V22.2h0.5V21.6h0.8l0.6-.6,1.6-.3,0.7,0.6-1.8,1,2.4,0.5,0.3-.8h1l0.3-.7L52.3,21V20.1l-0.5-.2-1.9-.7-1.6.2-0.9.5V21H46.6l-0.2-.6,0.9-.8H45.7l-0.5.2-0.2.4h0.6v0.6h-1l-0.2.4H42.8V20.7h1.2l0.9-.9-0.5-.2-0.6.7H42.6l-0.7-.9H40.5l-1.5,1h1.3v0.4l-0.3.3h1.5l0.2,0.5H40.1V21.1H39.1l-0.6-.3H38a25,25,0,0,0-8.6,11.4v0.4l1,0.4v1.9l1,1.6h0.8V35.9l-1-1.4-0.2-1.4h0.6l0.3,1.4,1.4,1.9-0.3.6,0.9,1.3,2.2,0.4V38.4h0.9l-0.2.8h0.7l1.1,0.2,1.5,1.6h1.9l0.2,1.5-1.3.9v2.2l1.9,2.2,0.2,0.8,0.8,0.2,1.6,1v4.1h0.5l-0.3,1.9,0.9,1.1v1.9l1.2,1.9,1.5,1.2h1.5V61.8L49.7,61V60.6L50,60V59.4H49.3L48.9,59l0.6-.6V58l-0.7-.2V57.4l1-.2,1.4-.7,0.5-.9,1.1-1.5,0.3-.5-0.4-1.5,0.4-.8h1.4l0.9-.8,0.2-2.9,1-1.4,0.2-.9-1-.3Zm8.3-19.7,0.5,0.3v0.4H63.7V26h1.7l0.5-.6-0.6-.2-0.3-.3-0.4-.7-0.2-.9-0.8.2-0.3.3v0.4Zm-1.2,1.4,1-.8V24.5l-0.5-.2-0.7.2-0.4.8v0.5h0.5Zm-14.4,3h0.5V28.4l-0.3-.2-0.3.3v0.3Zm1.7-.7H49.1v0.4h0.2v0.2h0.4l0.3-.2V28.1h0.4V27.8H50Z" transform="translate(-22.9 -16)" fill="#005595"/></svg>